# xmcd CD database file
#
# Track frame offsets:
#	150
#	15048
#	35427
#	54514
#
# Disc length: 911 seconds
#
# Revision: 0
# Processed by: cddbd v1.5.2PL0 Copyright (c) Steve Scherf et al.
# Submitted via: CDex 1.40Release
#
DISCID=20038d04
DTITLE=Pilgrim Rose - Turns Winter Into Spring
DYEAR=2010
DGENRE=Country
TTITLE0=Like a hungry yearning
TTITLE1=God only knows
TTITLE2=While you sleep
TTITLE3=Orange dress
EXTD=YEAR: 2010 ID3G: 2
EXTT0=
EXTT1=
EXTT2=
EXTT3=
PLAYORDER=
